<svg id="SvgjsSvg1001" width="20" height="20" xmlns="http://www.w3.org/2000/svg" version="1.1" xmlns:xlink="http://www.w3.org/1999/xlink" xmlns:svgjs="http://svgjs.com/svgjs"><defs id="SvgjsDefs1002"></defs><g id="SvgjsG1008"><svg xmlns="http://www.w3.org/2000/svg" enable-background="new 0 0 64 64" viewBox="0 0 64 64" width="20" height="20"><path fill="#ff6347" d="M38.8,33.3c-2.8,3.3-7,5.3-11.7,5.3c-8.6,0-15.5-7-15.5-15.5c0-8.6,7-15.5,15.5-15.5c3.6,0,6.9,1.2,9.5,3.3
		h7.3C40.1,5.6,34,2.2,27.1,2.2c-11.5,0-20.8,9.3-20.8,20.8c0,4.3,1.3,8.4,3.8,11.9c0,0,14.8,25.7,15,25.8c1.2,1.4,3.6,1.2,4.5-0.4
		c0,0,15.4-26.5,15.8-27.1H38.8z" class="color3c4652 svgShape"></path><path fill="#1e90ff" d="M53.9,19.5H57c0.3,0,0.6-0.3,0.5-0.7l-0.4-1.3c-0.1-0.2-0.2-0.3-0.4-0.3l-2.3-0.3c-0.3,0-0.6,0.2-0.6,0.5v1.2
		h-0.3l-1.7-6.5H34.1l-1.7,6.5h-0.3v-1.2c0-0.3-0.3-0.5-0.6-0.5l-2.3,0.3c-0.2,0-0.4,0.2-0.4,0.3l-0.4,1.3c-0.1,0.3,0.1,0.7,0.5,0.7
		H32c-2.5,2.3-3.9,5.5-3.9,8.9V31c0,0.5,0.4,0.8,1,0.9v1.7c0,0.2,0.2,0.4,0.4,0.4h5c0.2,0,0.4-0.2,0.4-0.4v-1.7h15.8v1.7
		c0,0.2,0.2,0.4,0.4,0.4h5c0.2,0,0.4-0.2,0.4-0.4v-1.7c0.6-0.1,1-0.4,1-0.9v-2.6C57.8,25,56.3,21.8,53.9,19.5z M34.1,27.7
		c0,0.1-0.1,0.2-0.2,0.2H30c-0.1,0-0.2-0.1-0.2-0.2v-1.5c0-0.1,0.1-0.2,0.2-0.2h3.9c0.1,0,0.2,0.1,0.2,0.2V27.7z M50,28.9H35.9V28
		H50V28.9z M50,27.4H35.9v-0.9H50V27.4z M33.8,19.5c-0.1,0-0.2-0.1-0.2-0.3l1.3-5.7c0-0.1,0.1-0.2,0.2-0.2h15.6
		c0.1,0,0.2,0.1,0.2,0.2l1.3,5.7c0,0.1-0.1,0.3-0.2,0.3H33.8z M56.1,27.7c0,0.1-0.1,0.2-0.2,0.2H52c-0.1,0-0.2-0.1-0.2-0.2v-1.5
		c0-0.1,0.1-0.2,0.2-0.2h3.9c0.1,0,0.2,0.1,0.2,0.2V27.7z" class="color2d7abf svgShape"></path></svg></g></svg>
