<svg id="SvgjsSvg1058" width="40" height="40" xmlns="http://www.w3.org/2000/svg" version="1.1" xmlns:xlink="http://www.w3.org/1999/xlink" xmlns:svgjs="http://svgjs.com/svgjs"><defs id="SvgjsDefs1059"></defs><g id="SvgjsG1060"><svg xmlns="http://www.w3.org/2000/svg" enable-background="new 0 0 60 60" viewBox="0 0 60 60" width="40" height="40"><path fill="#fe9526" d="M47.4700317 49.1000366C47.4700317 52.9700317 36.4900513 54 30 54c-6.4899902 0-17.4699707-1.0299683-17.4699707-4.8999634 0-3.4500122 8.9299927-4.4700317 13.0499878-4.75l1.0700073 1.9400024c-8.2600098.4099731-11.960022 2.1499634-12.1199951 2.8200073C14.7400513 50.0800171 20.4000244 52 30 52c9.6000366 0 15.25-1.9199829 15.4700317-2.9099731-.1600342-.6500244-3.8599854-2.3900146-12.1199951-2.7999878l1.0599976-1.9400024C38.5300293 44.6300049 47.4700317 45.6300049 47.4700317 49.1000366zM30.0011597 12.006897c-6.7529297 0-12.2470703 5.4931641-12.2470703 12.2460938 0 6.7539063 5.4941406 12.2480469 12.2470703 12.2480469 6.7539063 0 12.2480469-5.4941406 12.2480469-12.2480469C42.2492065 17.500061 36.7550659 12.006897 30.0011597 12.006897zM30.0021019 15.2078867c2.1268463 0 3.8566856 1.7298365 3.8566856 3.8566847s-1.7298393 3.8566875-3.8566856 3.8566875c-2.1268501 0-3.8571434-1.7298374-3.8571434-3.8566875S27.8752518 15.2078867 30.0021019 15.2078867zM36.3972855 30.8852768c-.1774673.2058239-.436348.3247452-.70895.3247452H24.3149529c-.2721443 0-.5310249-.1189213-.70895-.3247452-.1779232-.2058239-.2575073-.4793415-.2177143-.7491989.4811707-3.2547646 3.3242874-5.7091026 6.6138134-5.7091026s6.1326408 2.4543381 6.612896 5.7091026C36.654335 30.4059353 36.5756645 30.6794529 36.3972855 30.8852768z" class="color3a4654 svgShape"></path><path fill="#595bd4" d="M30,6c-10.0699463,0-18.25,8.1900024-18.25,18.25c0,7.8200073,4.9100342,14.6900024,12.25,17.2400513
			l1.5800171,2.8599854l1.0700073,1.9400024l2.4799805,4.4799805c0.1799927,0.3200073,0.5100098,0.5200195,0.8800049,0.5200195
			c0.3600464,0,0.7000122-0.2000122,0.8699951-0.5200195l2.4700317-4.4799805l1.0599976-1.9400024l1.5800171-2.8599854
			C43.3400269,38.9500122,48.25,32.0800171,48.25,24.25C48.25,14.1900024,40.0599976,6,30,6z M30,38.5
			c-7.8499756,0-14.25-6.3899536-14.25-14.25c0-7.8499756,6.4000244-14.2399902,14.25-14.2399902
			c7.8600464,0,14.25,6.3900146,14.25,14.2399902C44.25,32.1100464,37.8600464,38.5,30,38.5z" class="color2c79c1 svgShape"></path></svg></g></svg>
