<svg id="SvgjsSvg1018" width="40" height="40" xmlns="http://www.w3.org/2000/svg" version="1.1" xmlns:xlink="http://www.w3.org/1999/xlink" xmlns:svgjs="http://svgjs.com/svgjs"><defs id="SvgjsDefs1019"></defs><g id="SvgjsG1020"><svg xmlns="http://www.w3.org/2000/svg" data-name="Layer 1" viewBox="0 0 64 64" width="40" height="40"><path fill="#1e90ff" d="M10.69 21.12c0 10.64 16.92 36.3 18.85 39.2L32 64l2.46-3.68c1.93-2.89 18.86-28.54 18.86-39.2a21.31 21.31 0 0 0-42.62 0Zm5.9 0a15.41 15.41 0 0 1 30.82 0c0 5.78-7.91 20.3-15.42 32.13-7.49-11.84-15.4-26.36-15.4-32.13Z"></path><path fill="#ff6347" d="M34.61 23.63h-5.25a5.58 5.58 0 0 0-5.58 5.58v2.95h16.41v-2.95a5.58 5.58 0 0 0-5.58-5.58zM32 21.66a5.58 5.58 0 1 0-5.58-5.58A5.58 5.58 0 0 0 32 21.66z"></path></svg></g></svg>
